<?xml version="1.0" standalone="yes"?>
<svg xmlns="http://www.w3.org/2000/svg" width="1133" height="781">
<path style="fill:#010101; stroke:none;" d="M0 0L0 781L1133 781L1133 0L0 0z"/>
<path style="fill:#e4dae4; stroke:none;" d="M125 37L125 38L672 38L848 38C889.292 38 930.948 36.755 972 41.1659C1002.15 44.4057 1034.96 52.0482 1060 69.9097C1100.34 98.683 1113.44 153.466 1091.74 198C1072.61 237.262 1035.12 262.888 999 285C1004.34 285.053 1010.43 280.191 1015 277.573C1028.17 270.022 1040.87 261.759 1053 252.626C1074.34 236.551 1093.96 217.135 1106.03 193C1124.36 156.342 1120.37 108.286 1093.27 77.0038C1084.88 67.3153 1074.17 60.0042 1063 53.865C1030.12 35.7975 990.618 32.5641 954 30.9606C913.441 29.1846 872.648 30 832 30L356 30L204 30C177.531 30 148.99 25.7866 125 37z"/>
<path style="fill:#f79b80; stroke:none;" d="M133 32L134 33L133 32M128 35L129 36L128 35M126 36L127 37L126 36M105 48L105 49L654 49L833 49C870.934 49 909.26 47.3928 947 51.169C979.835 54.4543 1014.98 62.2662 1042 82.1559C1084.44 113.401 1091.98 171.191 1067.69 216C1048.56 251.288 1013.31 274.611 980 295C985.382 295.011 991.51 289.987 996.089 287.269C1009.04 279.585 1021.93 271.912 1034 262.873C1057.59 245.211 1080.21 224.245 1092.69 197C1113.64 151.277 1099.72 93.2972 1056 66.615C1018.26 43.5825 973.039 40.0396 930 38.9854C894.052 38.1048 858.023 38 822 38L334 38L181 38C163.407 38 139.961 33.8563 123 38.1358C116.505 39.7747 110.585 44.5006 105 48M1048 47L1049 48L1048 47z"/>
<path style="fill:#ec373a; stroke:none;" d="M25 138L645 138L809 138C839.208 138 873.62 135.152 901 150.312C936.119 169.757 932.31 217.346 909.905 245C871.647 292.221 803.921 303.08 750 324C752.892 334.116 758.711 343.223 762.536 353C776.195 387.908 792.972 421.695 808.14 456C816.585 475.103 824.93 501.297 842 514.471C854.085 523.797 870.319 525 885 525C915.461 525 952.099 530.71 980 519L980 518L970.576 503L954 467L917.309 387L894 337C953.871 312.437 1021.94 282.118 1060.84 228C1097.94 176.391 1084.7 102.025 1027 72.2585C984.831 50.5044 935.364 49 889 49L773 49L249 49L147 49C133.889 49 114.359 45.3169 102 49.4413C90.6439 53.2311 83.5836 65.1498 76.3889 74C60.0332 94.119 36.7794 114.925 25 138z"/>
<path style="fill:#f79b80; stroke:none;" d="M1055 50L1056 51L1055 50M1070 58L1071 59L1070 58z"/>
<path style="fill:#424497; stroke:none;" d="M1086 70L1087 71L1086 70M1092 76L1093 77L1092 76z"/>
<path style="fill:#f79b80; stroke:none;" d="M1109 103L1110 104L1109 103z"/>
<path style="fill:#e4dae4; stroke:none;" d="M521 164L652 164C645.512 208.094 601.901 238.13 568 261L568 262C610.389 243.734 656.368 202.541 666 156L558 156C546.904 156 527.564 152.434 521 164z"/>
<path style="fill:#424497; stroke:none;" d="M1116 157L1117 158L1116 157z"/>
<path style="fill:#e4dae4; stroke:none;" d="M692 166L810 166L763 317C781.746 310.617 783.331 294.393 788.424 277C796.866 248.171 806.982 219.83 815.424 191C818.555 180.307 824.029 169.125 825 158L730 158C717.284 158 701.257 155.201 692 166M225 166L225 167L344 167L274.308 364L251.656 428L242 457C273.879 457 305.692 455.481 337 448.997C347.979 446.723 364.56 443.973 372 435C332.401 444.161 295.78 449 255 449L281.344 375L321.344 262L344.692 196L357 159L271 159C254.422 159 239.293 156.659 225 166z"/>
<path style="fill:#424497; stroke:none;" d="M230 162L231 163L230 162z"/>
<path style="fill:#f79b80; stroke:none;" d="M520 162L513 167L556 168L645 168C636.327 190.652 627.075 209.187 609.961 226.999C600.588 236.754 587.515 243.689 579 254C609.369 237.092 648.767 201.074 652 164L559 164C547.936 164 529.804 167.452 520 162M692 164L693 165L692 164M225.667 165.333L226.333 165.667L225.667 165.333M673 176L790 176L751.026 301L683 518L704 509L715.576 469L743.72 379L755 341L758 345L759 345L750 324L820 299.424L877 275L877 274L763 317L791.026 228L810 166L711 166C698.705 166 681.058 164.189 673 176M217 170L217 171L336 171L305.692 257L256.459 397L234 461C278.635 461 322.17 459.161 364 442L364 441C322.737 450.774 284.686 457 242 457L263.308 396L318.692 239L344 167L256 167C243.702 167 227.907 164.08 217 170z"/>
<path style="fill:#424497; stroke:none;" d="M221 167L222 168L221 167M493 177C499.72 213.198 477.393 241.94 450 262.474C441.511 268.837 427.926 279.283 417 280C402.705 294.447 372.427 296.53 365.649 319C361.605 332.408 372.928 347.273 379.399 358C389.634 374.968 395.277 391.655 387.934 411C379.145 434.156 360.544 444.538 338 451C304.206 460.687 268.834 461 234 461C256.211 392.856 281.681 325.525 305.692 258C315.591 230.16 330.994 200.091 336 171L248 171C230.203 171 215.08 168.701 200.133 179.965C193.497 184.967 191.695 198.48 188.947 206C180.587 228.878 172.396 251.901 164.667 275C136.65 358.726 104.32 441.04 77 525L220 525C290.29 525 363.848 522.523 429 492.691C455.488 480.563 483.511 465.379 502.7 443C538.88 400.805 527.866 342.897 501 299C516.97 292.316 532.097 282.605 547 273.861C590.074 248.588 630.8 218.041 645 168L554 168L512 167.668L493 177M686 167L687 168L686 167M218 169L219 170L218 169z"/>
<path style="fill:#ec373a; stroke:none;" d="M677 172L678 173L677 172M554 525L631 525C650.326 525 667.18 526.458 685 519C681.947 514.114 688.82 500.54 690.667 495C697.84 473.48 703.821 451.537 711 430C730.469 371.593 749.859 312.309 766.333 253C771.101 235.835 777.569 219.151 782.333 202C784.709 193.448 789.3 184.87 790 176L701 176C690.868 176 673.996 172.603 665.44 178.429C657.707 183.694 656.748 194.67 653.999 203C647.106 223.889 641.26 245.122 634.333 266C616.536 319.639 600.746 374.031 583.974 428C574.004 460.084 561.572 492.269 554 525z"/>
<path style="fill:#f79b80; stroke:none;" d="M351 176L352 177L351 176z"/>
<path style="fill:#424497; stroke:none;" d="M1107 189L1108 190L1107 189M345 193L346 194L345 193z"/>
<path style="fill:#f79b80; stroke:none;" d="M1104 195L1105 196L1104 195M1100 202L1101 203L1100 202z"/>
<path style="fill:#424497; stroke:none;" d="M809 209L810 210L809 209M339 210L340 211L339 210M635 211L636 212L635 211M611 233L612 234L611 233z"/>
<path style="fill:#f79b80; stroke:none;" d="M603 239L604 240L603 239M1067 240L1068 241L1067 240M328 241L329 242L328 241M582 253L583 254L582 253M577 254L578 255L577 254M576 255L577 256L576 255M574 256L575 257L574 256M573 257L574 258L573 257z"/>
<path style="fill:#424497; stroke:none;" d="M322 258L323 259L322 258z"/>
<path style="fill:#f79b80; stroke:none;" d="M571 258L572 259L571 258M570 259L571 260L570 259M568 260L569 261L568 260z"/>
<path style="fill:#424497; stroke:none;" d="M793 260L794 261L793 260z"/>
<path style="fill:#f79b80; stroke:none;" d="M567 261L568 262L567 261M565 262L566 263L565 262z"/>
<path style="fill:#e4dae4; stroke:none;" d="M566 262L567 263L566 262M564.667 263.333L565.333 263.667L564.667 263.333z"/>
<path style="fill:#f79b80; stroke:none;" d="M562 264L563 265L562 264z"/>
<path style="fill:#e4dae4; stroke:none;" d="M563 264L564 265L563 264z"/>
<path style="fill:#f79b80; stroke:none;" d="M446 265L447 266L446 265M560 265L561 266L560 265z"/>
<path style="fill:#e4dae4; stroke:none;" d="M561 265L562 266L561 265M444 266L445 267L444 266M559 266L560 267L559 266M442 267L443 268L442 267z"/>
<path style="fill:#f79b80; stroke:none;" d="M443 267L444 268L443 267M557 267L558 268L557 267z"/>
<path style="fill:#e4dae4; stroke:none;" d="M558 267L559 268L558 267M440.667 268.333L441.333 268.667L440.667 268.333M556 268L557 269L556 268M425 276L425 277L440 270L425 276M554 269L555 270L554 269M883 269C861.532 280.433 836.049 287.658 813 295.333C802.605 298.795 788.467 300.289 781 309L844 287.424L884 270L883 269z"/>
<path style="fill:#f79b80; stroke:none;" d="M884 269L885 270L884 269M438 270L439 271L438 270M552 270L553 271L552 270M883 270L884 271L883 270M436 271L437 272L436 271z"/>
<path style="fill:#e4dae4; stroke:none;" d="M551 271L552 272L551 271z"/>
<path style="fill:#f79b80; stroke:none;" d="M881 271L882 272L881 271M434 272L435 273L434 272z"/>
<path style="fill:#e4dae4; stroke:none;" d="M549 272L550 273L549 272z"/>
<path style="fill:#f79b80; stroke:none;" d="M432 273L433 274L432 273M547 273L548 274L547 273M878 273L879 274L878 273M430 274L431 275L430 274M545 274L546 275L545 274z"/>
<path style="fill:#424497; stroke:none;" d="M316 275L317 276L316 275z"/>
<path style="fill:#f79b80; stroke:none;" d="M428 275L429 276L428 275M426 276L427 277L426 276M542 276L543 277L542 276z"/>
<path style="fill:#e4dae4; stroke:none;" d="M423 277L424 278L423 277z"/>
<path style="fill:#f79b80; stroke:none;" d="M424 277L425 278L424 277z"/>
<path style="fill:#e4dae4; stroke:none;" d="M421 278L422 279L421 278z"/>
<path style="fill:#f79b80; stroke:none;" d="M422 278L423 279L422 278z"/>
<path style="fill:#e4dae4; stroke:none;" d="M419 279L420 280L419 279z"/>
<path style="fill:#f79b80; stroke:none;" d="M420 279L421 280L420 279M418 280L419 281L418 280M416 281L417 282L416 281M414 282L415 283L414 282M412 283L413 284L412 283M410 284L411 285L410 284M838 286L839 287L838 286z"/>
<path style="fill:#e4dae4; stroke:none;" d="M997 286L998 287L997 286M995 287L996 288L995 287z"/>
<path style="fill:#f79b80; stroke:none;" d="M520 288L521 289L520 288z"/>
<path style="fill:#e4dae4; stroke:none;" d="M509 295C514.633 308.531 522.498 320.94 526.971 335C539.15 373.278 534.467 411.549 506.83 441.999C498.606 451.061 488.325 458.524 478 465C487.436 465.019 500.894 452.663 508 446.996C541.717 420.111 553.948 378.251 543.116 337C539.818 324.442 535.045 312.596 529.247 301C527.622 297.75 525.581 290.688 521.787 289.418C517.855 288.102 512.053 292.986 509 295M993 288L994 289L993 288M990 290L991 291L990 290z"/>
<path style="fill:#f79b80; stroke:none;" d="M824 291L825 292L824 291z"/>
<path style="fill:#e4dae4; stroke:none;" d="M988 291L989 292L988 291M986 292L987 293L986 292z"/>
<path style="fill:#f79b80; stroke:none;" d="M511 293L512 294L511 293M509 294L510 295L509 294M501 299C517.972 338.386 538.519 378.315 516.64 421C509.172 435.571 497.175 444.975 488 458C497.477 453.987 505.488 444.801 511.916 437C546.887 394.563 534.502 338.693 509 295L501 299M978 296L979 297L978 296M976 297L977 298L976 297M974 298L975 299L974 298z"/>
<path style="fill:#e4dae4; stroke:none;" d="M973 299L974 300L973 299z"/>
<path style="fill:#f79b80; stroke:none;" d="M971 300L972 301L971 300M969 301L970 302L969 301M967 302L968 303L967 302M305 306L306 307L305 306z"/>
<path style="fill:#424497; stroke:none;" d="M781 307L782 308L781 307z"/>
<path style="fill:#f79b80; stroke:none;" d="M954 309L955 310L954 309z"/>
<path style="fill:#e4dae4; stroke:none;" d="M915 328L978.258 466L992.576 497L999.213 507.184L1013 502C1009.56 482.68 995.488 461.864 987.309 444C968.574 403.084 948.294 362.538 931 321L915 328z"/>
<path style="fill:#f79b80; stroke:none;" d="M538 322L539 323L538 322z"/>
<path style="fill:#424497; stroke:none;" d="M299 323L300 324L299 323z"/>
<path style="fill:#f79b80; stroke:none;" d="M924 323L925 324L924 323M922 324L923 325L922 324M920 325L921 326L920 325M918 326L919 327L918 326M915.667 327.333L916.333 327.667L915.667 327.333M894 337C912.306 380.968 934.529 423.342 953.576 467C958.857 479.105 964.763 490.938 970.139 503C971.887 506.922 973.731 514.528 977.498 516.957C983.079 520.555 993.825 510.995 999 509L938.309 378L915 328L894 337z"/>
<path style="fill:#424497; stroke:none;" d="M541 331L542 332L541 331M293 340L294 341L293 340z"/>
<path style="fill:#e4dae4; stroke:none;" d="M755 341C742.11 397.227 720.574 453.041 703 508C720.727 503.789 721.279 490.235 726.333 475C736.444 444.528 746.019 413.742 755.28 383C759.001 370.648 769.448 350.464 755 341z"/>
<path style="fill:#f79b80; stroke:none;" d="M941 344L942 345L941 344M759 346L760 347L759 346M760 348L761 349L760 348M761 350L762 351L761 350M762 352L763 353L762 352M763 355L764 356L763 355M761 362L762 363L761 362M952 368L953 369L952 368M282 371L283 372L282 371z"/>
<path style="fill:#424497; stroke:none;" d="M276 388L277 389L276 388M270 405L271 406L270 405M969 405L970 406L969 405M538 408L539 409L538 408z"/>
<path style="fill:#f79b80; stroke:none;" d="M745 413L746 414L745 413M535 414L536 415L535 414z"/>
<path style="fill:#424497; stroke:none;" d="M528 425L529 426L528 425M980 429L981 430L980 429z"/>
<path style="fill:#f79b80; stroke:none;" d="M259 436L260 437L259 436M368 438L369 439L368 438M365 440L366 441L365 440z"/>
<path style="fill:#424497; stroke:none;" d="M343 442L344 443L343 442z"/>
<path style="fill:#f79b80; stroke:none;" d="M332 444L333 445L332 444z"/>
<path style="fill:#424497; stroke:none;" d="M509 445L510 446L509 445z"/>
<path style="fill:#f79b80; stroke:none;" d="M307 447L308 448L307 447z"/>
<path style="fill:#424497; stroke:none;" d="M991 453L992 454L991 453M497 454L498 455L497 454z"/>
<path style="fill:#f79b80; stroke:none;" d="M485 460L488 458L485 460M484 460L485 461L484 460M481 463L484 461L481 463z"/>
<path style="fill:#424497; stroke:none;" d="M484 462L485 463L484 462z"/>
<path style="fill:#f79b80; stroke:none;" d="M480 463L481 464L480 463M478 464L479 465L478 464M729 464L730 465L729 464M477 465L478 466L477 465M475 466L474 468L475 466z"/>
<path style="fill:#e4dae4; stroke:none;" d="M476 466L477 467L476 466M475 467L476 468L475 467z"/>
<path style="fill:#f79b80; stroke:none;" d="M472 468L473 469L472 468z"/>
<path style="fill:#e4dae4; stroke:none;" d="M473 468L474 469L473 468z"/>
<path style="fill:#f79b80; stroke:none;" d="M471 469L472 470L471 469M469 470L470 471L469 470M466 472L467 473L466 472M459 476L460 477L459 476M1002 477L1003 478L1002 477M705 507L706 508L705 507z"/>
<path style="fill:#424497; stroke:none;" d="M699 510L700 511L699 510z"/>
<path style="fill:#e4dae4; stroke:none;" d="M58 543L863 543L969 543L998 543C1001.44 543 1006.57 542.087 1009.61 544.028C1016.81 548.629 1021.42 567.276 1024.86 575C1037.09 602.434 1049.78 629.701 1062.31 657C1064.72 662.246 1068.36 676.011 1073.5 678.868C1076.95 680.787 1088 675.823 1088.47 671.787C1089.4 663.793 1078.72 648.283 1075.26 641C1063.32 615.89 1051.69 590.484 1040.58 565C1037.59 558.166 1031.44 536.416 1023.9 534.318C1017.42 532.518 1008.7 534 1002 534L955 534L804 534L313 534L123 534L81 534C72.6784 534.001 62.9488 535.376 58 543z"/>
<path style="fill:#f79b80; stroke:none;" d="M49 548L944 548L986 548L1001.35 549.603L1015.31 579L1049.22 653L1059.74 676L1065.22 684.211L1076 681C1067.83 673.623 1064.21 659.863 1059.69 650C1048.56 625.679 1037.88 601.09 1026.26 577C1022.29 568.769 1018.58 560.349 1014.86 552C1013.49 548.924 1012.43 544.395 1008.79 543.318C1002.45 541.443 993.592 543 987 543L939 543L783 543L273 543L104 543C91.003 543 77.996 543.15 65 542.996C58.5524 542.92 52.4657 541.18 49 548z"/>
<path style="fill:#424497; stroke:none;" d="M1030 543L1031 544L1030 543M25 698L802 698L992 698C1014.69 698 1048.16 704.218 1065 685C1058.48 675.464 1054.5 663.497 1049.69 653C1039.46 630.678 1028.88 608.474 1019 586C1014.88 576.624 1010.65 567.249 1006.26 558C1004.87 555.089 1003.76 550.101 1000.61 548.603C996.073 546.448 987.947 548 983 548L940 548L790 548L256 548L96 548C73.6944 548 45.9077 542.599 27.3179 557.353C21.2205 562.192 25 585.564 25 593L25 698M1046 578L1047 579L1046 578z"/>
<path style="fill:#f79b80; stroke:none;" d="M119 581L119 582L176 582L158 581L119 581M199 581L199 582L218 582L199 581M617 581L617 582L667 582C654.11 576.591 631.049 581 617 581z"/>
<path style="fill:#e4dae4; stroke:none;" d="M119 582L119 656L160 656C166.084 656 174.198 657.361 179.891 654.852C186.253 652.048 186.246 628.398 182.258 623.394C179.525 619.964 173.844 618.798 170 617C173.579 615.413 178.65 614.562 181.258 611.442C185.11 606.833 185.095 585.089 178.941 582.603C173.732 580.5 165.556 582 160 582L119 582M199 582L199 656L218 656L218 582L199 582M674 631L655 631C655 634.911 656.413 642.381 653.397 645.397C649.963 648.83 631.696 648.644 629.603 643.852C627.725 639.549 629 632.621 629 628L629 591L655 591L655 606L674 606C674 600.808 676.513 586.403 671.682 583.179C668.032 580.743 661.18 582 657 582C645.028 582 624.095 577.923 613.133 582.742C609.456 584.359 609.108 588.475 609.015 592C608.617 606.977 609 622.017 609 637C609 641.929 607.663 649.636 611.514 653.486C614.842 656.814 620.727 656 625 656L659 656C663.1 656 669.319 656.898 672.397 653.486C676.338 649.117 674 636.59 674 631z"/>
<path style="fill:#f79b80; stroke:none;" d="M181 583L182 584L181 583M182 584L183 585L182 584M609 586L610 587L609 586M674 586L674 606L675 606L674 586M1051 589L1052 590L1051 589z"/>
<path style="fill:#424497; stroke:none;" d="M139 591L139 613C145.403 613 157.675 614.74 161.972 608.501C164.707 604.53 163 595.664 163 591L139 591z"/>
<path style="fill:#f79b80; stroke:none;" d="M163 591L163 609L164 609L163 591z"/>
<path style="fill:#e4dae4; stroke:none;" d="M232 608L232 641L233.742 653.486L248 656L289 656L289 608L270 608L270 647L251 647L251 608L232 608z"/>
<path style="fill:#f79b80; stroke:none;" d="M251 608L251 647L252 647C252 635.828 255.311 618.274 251 608z"/>
<path style="fill:#e4dae4; stroke:none;" d="M358 640L340 640L340 648L321 648C321 644.474 319.867 638.339 322.603 635.603C329.656 628.551 352.673 640.841 357.397 630.656C358.663 627.926 358.001 623.927 358 621C357.999 618.457 358.316 615.57 357.566 613.105C356.151 608.446 351.129 608.06 347 608.004C336.681 607.864 315.146 604.005 306.228 609.457C302.541 611.712 303.006 616.238 303 620C302.985 629.257 300.719 642.028 303.434 650.892C305.658 658.153 318.271 656 324 656C331.333 656 352.185 659.545 356.821 652.581C358.99 649.324 358 643.729 358 640z"/>
<path style="fill:#f79b80; stroke:none;" d="M353 608L354 609L353 608z"/>
<path style="fill:#e4dae4; stroke:none;" d="M372 608L372 656L391 656L391 629L392.603 618.603L407 617L407 628L426 628L424.258 610.514L410 608.004L372 608z"/>
<path style="fill:#f79b80; stroke:none;" d="M391 608L392 609L391 608M402.667 608.333L403.333 608.667L402.667 608.333M421 608L422 609L421 608z"/>
<path style="fill:#e4dae4; stroke:none;" d="M455 623L455 616L473 616L473 627C464.03 627 448.105 623.937 440.109 628.318C434.214 631.548 433.384 651.065 439.279 654.682C444.862 658.109 454.898 655.753 461 655.17C471.218 654.193 481.682 656 492 656L492 625C492 620.807 493.017 614.82 490.258 611.279C487.401 607.612 482.145 608.007 478 608C468.334 607.984 458.666 607.95 449 608.001C444.904 608.022 440.455 608.066 438.179 612.109C431.093 624.699 447.924 623 455 623z"/>
<path style="fill:#f79b80; stroke:none;" d="M486 608L487 609L486 608z"/>
<path style="fill:#e4dae4; stroke:none;" d="M501 608L516.424 642L521.753 655.576L514 673C518.552 674.345 528.369 675.677 532.61 672.972C537.484 669.863 539.895 660.077 542.14 655C549.017 639.445 557.516 624.105 563 608L543 608L532 639C529.7 631.93 526.615 613.328 520.49 609.028C516.242 606.045 506.041 608 501 608M690 623L707 623L707 616L726 616L726 627C716.992 627 700.082 623.745 692.148 628.318C686.877 631.356 686.923 651.727 692.148 654.821C697.562 658.026 707.118 655.732 713 655.17C723.218 654.193 733.682 656 744 656L744 623C744 618.989 745.079 612.887 741.566 610.009C734.346 604.094 713.016 607.999 704 608C700.36 608 695.347 607.244 692.318 609.742C688.819 612.628 690 618.981 690 623M758 608L758 656L777 656L777 617L792 617L792 628L812 628C812 622.82 813.583 614.451 809.566 610.434C806.205 607.073 800.321 607.98 796 608.001C783.258 608.062 770.806 608 758 608z"/>
<path style="fill:#f79b80; stroke:none;" d="M787.667 608.333L788.333 608.667L787.667 608.333M807 608L808 609L807 608M830 608L831 609L830 608z"/>
<path style="fill:#e4dae4; stroke:none;" d="M860 656L860 666L842 666L842 660L824 660C824 663.296 823.019 668.709 825.603 671.258C828.105 673.727 833.703 673.816 837 673.961C845.819 674.347 871.002 677.936 877.258 670.566C880.64 666.582 879 657.87 879 653L879 608C869.698 608 860.173 609.634 851 608.914C843.389 608.318 832.808 605.712 826.109 610.703C818.975 616.018 818.977 646.981 826.109 652.297C834.623 658.644 850.054 656 860 656z"/>
<path style="fill:#f79b80; stroke:none;" d="M847.667 608.333L848.333 608.667L847.667 608.333M897 608L898 609L897 608z"/>
<path style="fill:#e4dae4; stroke:none;" d="M898.044 608.653C888.959 611.691 892.997 635.217 893 643C893.001 646.271 892.362 650.703 894.742 653.347C897.687 656.618 903.052 655.998 907 656C917.755 656.004 934.966 659.281 944.941 655.107C952.791 651.822 949 628.278 949 621C949 617.763 949.759 613.132 947.397 610.514C944.497 607.299 938.876 608.001 935 608C924.034 607.996 908.469 605.166 898.044 608.653z"/>
<path style="fill:#f79b80; stroke:none;" d="M944 608L945 609L944 608M305 609L306 610L305 609M355 609L356 610L355 609M392.667 609.333L393.333 609.667L392.667 609.333M439 609L440 610L439 609M562 609L563 610L562 609M741 609L742 610L741 609M778.667 609.333L779.333 609.667L778.667 609.333M809 609L810 610L809 609M827 609L828 610L827 609M857 609L857 610L860 610L857 609M895 609L896 610L895 609M159 610L160 611L159 610M182 610L183 611L182 610M438 610L439 611L438 610M490 610L491 611L490 610M542 610L543 611L542 610M810 610L811 611L810 610M303 611L304 612L303 611M357 611L358 612L357 611M425 611L426 612L425 611M824 611L825 612L824 611M893 611L894 612L893 611M154 612L155 613L154 612M180 612L181 613L180 612M437 612L438 613L437 612M491 612L492 613L491 612M811 612L812 613L811 612M823 612L824 613L823 612M541 613L542 614L541 613M689 613L689 622L690 622L689 613z"/>
<path style="fill:#424497; stroke:none;" d="M1062 613L1063 614L1062 613z"/>
<path style="fill:#f79b80; stroke:none;" d="M176 614L177 615L176 614M822 614L823 615L822 614M173 615L174 616L173 615M504 615L505 616L504 615M170 616L171 617L170 616M321 616C321 618.927 320.089 623.949 322.028 626.397C324.251 629.204 336.749 629.204 338.972 626.397C340.911 623.949 340 618.927 340 616L339 616L339 627L322 627L321 616z"/>
<path style="fill:#424497; stroke:none;" d="M322 616L322 627L339 627L339 616L322 616z"/>
<path style="fill:#f79b80; stroke:none;" d="M540 616L541 617L540 616M559 616L560 617L559 616M725 616L725 627L726 627L725 616M505 617L506 618L505 617M524 617L525 618L524 617M843 617L844 618L843 617z"/>
<path style="fill:#424497; stroke:none;" d="M860 647C860 639.608 862.669 625.969 859.397 619.318C857.484 615.431 845.473 616.012 842.742 618.742C839.179 622.306 839.225 642.699 843.514 645.682C847.511 648.462 855.361 647 860 647z"/>
<path style="fill:#f79b80; stroke:none;" d="M859 617L860 618L859 617z"/>
<path style="fill:#424497; stroke:none;" d="M912 617L912 647L930 647L930 617L912 617z"/>
<path style="fill:#f79b80; stroke:none;" d="M391 618L391 656L392 656C392 645.089 395.211 628.036 391 618M558 618L559 619L558 618M175 619L176 620L175 619M841 619L842 620L841 619M178 620L179 621L178 620M525 620L526 621L525 620M180 621L181 622L180 621z"/>
<path style="fill:#424497; stroke:none;" d="M139 622L139 647L164 647L164 625L139 622z"/>
<path style="fill:#f79b80; stroke:none;" d="M437 622L438 623L437 622M526 623L527 624L526 623M161 624L162 625L161 624M537 624L538 625L537 624M1067 624L1068 625L1067 624M509 626L510 627L509 626M441 627L442 628L441 627M536 627L537 628L536 627M554 627L555 628L554 627M693 627L694 628L693 627M510 628L511 629L510 628M553 629L554 630L553 629M535 630L536 631L535 630M436 631L437 632L436 631M674 631L674 651L675 651L674 631M356 632L357 633L356 632M688 632L688 651L689 651L688 632M322 634L322 635L353 635L322 634M455 634L455 635L473 635L455 634M530 634L531 635L530 634M707 634L707 635L725 635L725 647C731.111 632.437 716.708 634 707 634M321 635L321 648L322 648L321 635z"/>
<path style="fill:#424497; stroke:none;" d="M455 635L455 648L473 647L473 635L455 635M707 635L707 648L725 647L725 635L707 635z"/>
<path style="fill:#f79b80; stroke:none;" d="M514 637L515 638L514 637M531 637L532 638L531 637M532 638L533 639L532 638M549 638L550 639L549 638M515 639L516 640L515 639M339 640L339 648L340 648L339 640M548 640L549 641L548 640M841 643L842 644L841 643M269 646L270 647L269 646M630 646L630 647L654 647L630 646M844 646L845 647L844 646M459 647L459 648L469 648L459 647M712 647L712 648L721 648L712 647M519 648L520 649L519 648M822 648L823 649L822 648M544 649L545 650L544 649M520 650L521 651L520 650M609.333 650.667L609.667 651.333L609.333 650.667M436 651L437 652L436 651M543 651L544 652L543 651M824 651L825 652L824 651M183 652L184 653L183 652M303 652L304 653L303 652M357 652L358 653L357 652M893 652L894 653L893 652M689 653L690 654L689 653M827 653L828 654L827 653M181 654L182 655L181 654M267 654L267 655L270 655L267 654M305 654L306 655L305 654M355 654L356 655L355 654M470 654L470 655L473 655L470 654M690 654L691 655L690 654M722 654L722 655L725 655L722 654M830 654L831 655L830 654M895 654L896 655L895 654M178 655L179 656L178 655M236 655L237 656L236 655M256 655L256 656L259 656L256 655M308 655L309 656L308 655M352 655L353 656L352 655M440 655L441 656L440 655M458 655L458 656L461 656L458 655M614 655L615 656L614 655M669 655L670 656L669 655M692 655L693 656L692 655M710 655L710 656L713 656L710 655M834.667 655.333L835.333 655.667L834.667 655.333M540 658L541 659L540 658z"/>
<path style="fill:#424497; stroke:none;" d="M1083 659L1084 660L1083 659z"/>
<path style="fill:#f79b80; stroke:none;" d="M539 660L540 661L539 660M823 660L823 669L824 669L823 660M842 665L843 666L842 665M859 665L860 666L859 665M535 669L536 670L535 669M878 669L879 670L878 669M534 671L535 672L534 671M875 672L876 673L875 672M514 673L515 674L514 673M533 673L534 674L533 673M831.667 673.333L832.333 673.667L831.667 673.333M869 673L869 674L872 674L869 673M1089 673L1090 674L1089 673M1078 678L1079 679L1078 678z"/>
<path style="fill:#424497; stroke:none;" d="M1067 684L1068 685L1067 684M70 715L70 760L111 762L111 747L84 749L84 742L102 744L102 729L84 731L84 726L111 728L111 713L70 715M198 715L200 720L192 740C188.056 731.666 184.684 724.302 185 715L153 715L155 755L153 755L153 747L127 749L129 715L113 715L113 760L169 760L167 720C176.46 725.369 183.348 749.767 183 760L200 760C199.655 749.844 206.608 725.33 216 720L215 760L255 762L255 747L229 749L229 742L247 744L247 729L229 731L229 726L255 728L255 713L198 715M362 715L362 760L403 762L403 747L376 749L376 742L394 744L394 729L376 731L376 726L402 728L402 720C414.038 733.189 416.733 742.936 416 760L432 760L431.417 740L446 715L428 715L424 729L418 721L420 715L362 715M601 715L601 760L659 760L662 748L664 748L667 760L702 760L700 744C706.668 744 716.079 744.857 721.957 741.142C730.438 735.781 729.929 721.072 720.985 716.457C716.084 713.928 709.338 715 704 715L667 715L664 727L663 727L660 715L601 715M729 715L729 760L770 762L770 747L743 749L743 742L761 744L761 729L743 731L743 726L769 728L769 713L729 715M816 713L816 720C806.677 717.178 799.166 712.546 789 714.468C770.46 717.971 763.935 744.464 779.093 756.211C791.24 765.624 805.662 758.894 818 754L811 741C805.869 743.708 803.491 748.84 797 749.359C781.083 750.631 778.888 726.66 795 725.503C802.342 724.976 805.507 730.773 811 734L815 726L830 726L828 760L844 760L843 726L857 728L857 713L816 713M891 713L891 728L906 726L904 760L920 760L918 726L932 728L932 720L934 720L932 760L948 760L948 715L891 713M460 714.464C430.202 719.875 439.701 765.998 470 760.536C500.433 755.048 490.573 708.913 460 714.464M968 714.468C937.761 720.172 948.414 766.315 979 760.532C1008.8 754.898 998.119 708.785 968 714.468M23 715L23 760C33.6399 760 49.4198 762.924 58.9853 757.583C71.4128 750.643 71.7925 725.705 59.9599 717.995C50.5218 711.844 33.8081 715 23 715z"/>
<path style="fill:#ec373a; stroke:none;" d="M107 715C99.7319 720.506 81.0195 717 72 717C76.2285 726.979 76.2285 748.021 72 758C81.2137 758 100.584 754.382 108 760L109 760L109 749L108 749C102.089 753.478 89.2512 751 82 751L82 740L99 742L100 742L100 732L82 733L82 724L109 725L109 715L107 715M252 715C242.825 719.897 227.283 717 217 717C219.759 728.587 219.759 746.413 217 758C226.019 758 244.732 754.494 252 760L253 760L253 750L227 751L227 740L245 741L245 732L227 733L227 724L253 725L252 715z"/>
<path style="fill:#424497; stroke:none;" d="M257 715L257 760L273 760L271 743C279.732 743.284 284.558 751.832 285 760L302 760L292 742C301.767 737.404 303.58 721.559 292.995 716.318C283.853 711.791 267.077 715 257 715M317 715L317 760C327.209 760 346.053 763.607 354.815 757.772C363.585 751.93 358.834 743.933 358.278 736C357.787 728.998 361.411 721.742 353.956 717.009C345.281 711.501 327.019 715 317 715z"/>
<path style="fill:#ec373a; stroke:none;" d="M399 715C391.732 720.506 373.019 717 364 717C368.229 726.979 368.229 748.021 364 758C375.471 758 390.321 755.475 401 760L401 749L400 749C394.089 753.478 381.251 751 374 751L374 740L391 742L392 742L392 732L374 733L374 724L400 725L399 715z"/>
<path style="fill:#424497; stroke:none;" d="M491 715L491 760L506 760L504 736L505 736L521 760L537 760L537 715L522 715L524 739L523 739L507 715L491 715M540 715L540 760C550.68 760 566.603 762.977 575.985 757.005C588.604 748.973 588.297 724.409 574.999 717.14C565.79 712.105 550.201 715 540 715z"/>
<path style="fill:#ec373a; stroke:none;" d="M638 715C628.825 719.897 613.283 717 603 717C607.004 727.986 607.004 747.014 603 758C614.471 758 629.321 755.475 640 760L640 750L613 751L613 740L631 742L631 732L613 733L613 724C620.051 724 632.244 721.639 638 726L639 726L638 715M766 715C756.825 719.897 741.283 717 731 717C735.229 726.979 735.229 748.021 731 758C742.471 758 757.321 755.475 768 760L768 749L741 751L741 740L759 742L759 732L741 733L741 724C748.051 724 760.244 721.639 766 726L767 726L766 715M818 715L818 726L819 726L832 724L831 758L842 758L840 724L854 726L855 726L855 715C845.641 718.966 827.359 718.966 818 715z"/>
<path style="fill:#424497; stroke:none;" d="M865 715L867 720L867 721C859.796 729.917 859.07 749.182 849 755L849 760L866 760L864 755L864 754C869.547 748.51 877.453 748.51 883 754L883 755L881 760L899 760C897.796 744.114 881.244 732.075 883 715L865 715z"/>
<path style="fill:#ec373a; stroke:none;" d="M893 715L893 725L908 724C908 734.671 910.215 748.053 906 758L918 758C913.785 748.053 916 734.671 916 724L930 725L930 715L929 715C922.258 720.108 900.548 718.198 893 715z"/>
<path style="fill:#424497; stroke:none;" d="M999 715L999 760L1014 760L1012 736C1018.03 742.547 1028.3 750.698 1029 760L1045 760L1045 715L1030 715L1032 739L1031 739L1015 715L999 715z"/>
<path style="fill:#ec373a; stroke:none;" d="M461 716.464C433.819 721.357 441.504 763.451 469 758.536C496.751 753.575 488.881 711.447 461 716.464M815 753L809 744C797.268 767.849 764.592 732.077 792 723.808C794.992 722.905 798.067 723.275 801 724.225C804.951 725.504 807.39 727.917 810 731L815 722C805.239 721.328 798.841 713.956 788 716.928C770.629 721.69 767.111 746.948 783.015 756.031C795.473 763.146 803.293 753.768 815 753M969 716.468C941.227 721.662 950.118 763.641 978 758.381C1005.24 753.242 996.363 711.349 969 716.468M25 717C29.2285 726.979 29.2285 748.021 25 758C34.8956 758 49.0685 760.56 57.9599 755.442C69.3141 748.907 69.3821 725.949 57.9599 719.417C49.1368 714.372 34.8333 717 25 717M115 717C119.229 726.979 119.229 748.021 115 758C126.205 758 140.565 755.578 151 760L151 749L125 751C125 740.329 122.785 726.947 127 717L115 717M155 717C159.004 727.986 159.004 747.014 155 758L167 758L167 757C162.58 751.166 162.58 723.834 167 718L155 717M170 717C175.215 726.953 187.833 746.737 185 758L198 758C195.193 746.84 207.817 726.892 213 717L201 717C202.365 726.088 195.389 736.74 192 745C187.93 737.848 180.755 725.198 183 717L170 717M259 717C263.229 726.979 263.229 748.021 259 758L271 758L269 741C278.922 741.008 286.411 747.499 287 758L300 758L288 741C298.034 738.379 302.921 723.813 291.985 718.318C283.564 714.087 268.287 717 259 717M319 717C323.004 727.986 323.004 747.014 319 758C328.418 758 342.153 760.532 350.996 757.107C360.315 753.496 360.07 742.37 353 737C371.249 714.138 330.894 717 319 717M403 717C411.799 729.881 424.042 741.422 418 758L429 758C424.924 740.881 435.159 730.421 444 717L430 717L424 733C421.363 729.015 415.626 722.735 418 718L403 717M493 717C495.759 728.587 495.759 746.413 493 758L504 758L502 731C508.274 737.326 522.61 748.832 523 758L535 758C530.771 748.021 530.771 726.979 535 717L524 717L526 744C519.533 737.397 505.96 726.424 505 717L493 717M542 717C544.758 728.587 544.758 746.413 542 758C551.973 758 566.209 760.617 574.985 755.005C586.174 747.85 585.739 725.615 573.996 719.14C565.463 714.434 551.444 717 542 717M643 717L643 718C647.459 721.42 656.653 731.005 656.733 737C656.814 743.087 646.586 753.615 642 757L642 758L657 758L657 757L662 744L664 744L669 757L669 758L684 758C680.049 752.221 670.657 744.377 669.602 737.286C668.771 731.703 679.913 721.011 684 718L684 717L669 717L664 730L663 730L658 717L643 717M688 717C692.407 727.401 691.843 747.456 688 758L700 758L698 741C704.543 741 713.998 742.711 719.982 739.682C728.062 735.592 727.82 722.629 719.957 718.457C711.868 714.164 696.995 717 688 717M867 717C869.601 726.497 857.873 750.2 851 757L851 758L864 758C859.04 742.563 887.691 743.37 883 758L897 758C891.022 748.069 878.398 728.799 880 717L867 717M934 717C938.229 726.979 938.229 748.021 934 758L946 758C941.771 748.021 941.771 726.979 946 717L934 717M1001 717C1003.76 728.587 1003.76 746.413 1001 758L1012 758L1010 731C1016.36 737.376 1030.61 748.667 1031 758L1043 758C1038.77 748.021 1038.77 726.979 1043 717L1032 717L1034 744C1027.86 737.582 1013.58 726.139 1013 717L1001 717z"/>
<path style="fill:#010101; stroke:none;" d="M641 720L641 728L615 726L615 731L633 729L633 744L615 742L615 749L642 747L642 755C653.283 745.681 660.283 725.672 641 720M688 755L688 720C668.139 721.501 669.349 752.114 688 755z"/>
<path style="fill:#424497; stroke:none;" d="M462.001 723.537C445.67 727.324 450.857 755.425 468 751.463C484.493 747.651 479.37 719.509 462.001 723.537M970.001 723.562C953.698 727.659 959.099 755.369 976 751.463C992.48 747.654 987.423 719.184 970.001 723.562M35 724L35 751C40.4234 751 48.2198 752.415 52.9452 749.258C60.3397 744.317 60.0173 729.358 51.9815 725.179C47.2913 722.74 40.1415 724 35 724M269 724L269 734C272.445 734 297.72 735.024 288.396 725.603C284.792 721.962 273.778 724 269 724M329 724L329 733C333.479 733 345.237 735.097 347.953 730.683C353.263 722.051 332.646 724 329 724M552 724L552 751C557.22 751 565.344 752.517 569.786 749.258C576.391 744.412 576.288 729.285 568.895 725.179C564.371 722.666 557.019 724 552 724M698 724L698 735C701.563 735 725.184 734.872 716.254 725.742C712.709 722.119 702.667 724 698 724z"/>
<path style="fill:#010101; stroke:none;" d="M463.004 725.598C449.119 728.596 452.511 751.825 466.999 749.377C481.065 747 477.498 722.468 463.004 725.598M971 725.613C956.669 729.027 961.478 753.096 975.996 749.157C989.054 745.613 985.187 722.232 971 725.613M37 726L37 749C41.6012 749 47.9013 750.078 51.8665 747.258C57.861 742.995 57.5216 730.734 50.9452 727.179C47.0228 725.058 41.3119 726 37 726M271 726L271 732C274.108 732 287.364 733.833 287.364 729C287.364 724.167 274.108 726 271 726M331 726L331 731C333.399 731 346.926 732.434 346.079 728.17C345.327 724.388 333.835 726 331 726M554 726L554 749C558.573 749 564.843 750.001 568.772 747.142C573.644 743.596 573.535 731.342 568.772 727.742C564.96 724.862 558.491 726 554 726M700 726L700 732C702.919 732 714.163 733.657 714.94 729.741C716.001 724.389 702.845 726 700 726z"/>
<path style="fill:#424497; stroke:none;" d="M873 728L868 742L879 742L873 728z"/>
<path style="fill:#010101; stroke:none;" d="M873 733L871 740L876 740L873 733z"/>
<path style="fill:#424497; stroke:none;" d="M329 740L329 751C333.932 751 344.609 752.994 348.396 749.258C358.423 739.366 332.565 740 329 740z"/>
<path style="fill:#010101; stroke:none;" d="M331 742L331 749C334.506 749 346.856 750.907 347.534 745.88C348.314 740.094 334.281 742 331 742z"/>
</svg>
